<mxfile host="Electron" agent="Mozilla/5.0 (Windows NT 10.0; Win64; x64) AppleWebKit/537.36 (KHTML, like Gecko) draw.io/26.1.1 Chrome/132.0.6834.210 Electron/34.3.3 Safari/537.36" version="26.1.1">
  <diagram name="Page-1" id="BCxLDhu4A4aj4RpIcTMn">
    <mxGraphModel dx="1814" dy="1362" grid="1" gridSize="10" guides="1" tooltips="1" connect="1" arrows="1" fold="1" page="1" pageScale="1" pageWidth="850" pageHeight="1100" math="0" shadow="0">
      <root>
        <mxCell id="0" />
        <mxCell id="1" parent="0" />
        <mxCell id="VAlqsD_80NPTklT60D_i-1" value=" User " style="swimlane;fontStyle=1;childLayout=stackLayout;horizontal=1;startSize=26;horizontalStack=0;resizeParent=1;resizeParentMax=0;resizeLast=0;collapsible=1;marginBottom=0;fillColor=#fff2cc;strokeColor=#d6b656;" vertex="1" parent="1">
          <mxGeometry x="-480" y="10" width="210" height="260" as="geometry" />
        </mxCell>
        <mxCell id="VAlqsD_80NPTklT60D_i-2" value="  - userId: int" style="text;strokeColor=none;fillColor=none;align=left;verticalAlign=top;spacingLeft=4;spacingRight=4;overflow=hidden;rotatable=0;points=[[0,0.5],[1,0.5]];portConstraint=eastwest;" vertex="1" parent="VAlqsD_80NPTklT60D_i-1">
          <mxGeometry y="26" width="210" height="26" as="geometry" />
        </mxCell>
        <mxCell id="VAlqsD_80NPTklT60D_i-3" value="  - username: String" style="text;strokeColor=none;fillColor=none;align=left;verticalAlign=top;spacingLeft=4;spacingRight=4;overflow=hidden;rotatable=0;points=[[0,0.5],[1,0.5]];portConstraint=eastwest;" vertex="1" parent="VAlqsD_80NPTklT60D_i-1">
          <mxGeometry y="52" width="210" height="26" as="geometry" />
        </mxCell>
        <mxCell id="VAlqsD_80NPTklT60D_i-4" value="  - password: String" style="text;strokeColor=none;fillColor=none;align=left;verticalAlign=top;spacingLeft=4;spacingRight=4;overflow=hidden;rotatable=0;points=[[0,0.5],[1,0.5]];portConstraint=eastwest;" vertex="1" parent="VAlqsD_80NPTklT60D_i-1">
          <mxGeometry y="78" width="210" height="26" as="geometry" />
        </mxCell>
        <mxCell id="VAlqsD_80NPTklT60D_i-5" value="  - firstName: String" style="text;strokeColor=none;fillColor=none;align=left;verticalAlign=top;spacingLeft=4;spacingRight=4;overflow=hidden;rotatable=0;points=[[0,0.5],[1,0.5]];portConstraint=eastwest;" vertex="1" parent="VAlqsD_80NPTklT60D_i-1">
          <mxGeometry y="104" width="210" height="26" as="geometry" />
        </mxCell>
        <mxCell id="VAlqsD_80NPTklT60D_i-6" value="  - middleName: String" style="text;strokeColor=none;fillColor=none;align=left;verticalAlign=top;spacingLeft=4;spacingRight=4;overflow=hidden;rotatable=0;points=[[0,0.5],[1,0.5]];portConstraint=eastwest;" vertex="1" parent="VAlqsD_80NPTklT60D_i-1">
          <mxGeometry y="130" width="210" height="26" as="geometry" />
        </mxCell>
        <mxCell id="VAlqsD_80NPTklT60D_i-7" value="  - lastName: String" style="text;strokeColor=none;fillColor=none;align=left;verticalAlign=top;spacingLeft=4;spacingRight=4;overflow=hidden;rotatable=0;points=[[0,0.5],[1,0.5]];portConstraint=eastwest;" vertex="1" parent="VAlqsD_80NPTklT60D_i-1">
          <mxGeometry y="156" width="210" height="26" as="geometry" />
        </mxCell>
        <mxCell id="VAlqsD_80NPTklT60D_i-8" value="  - email: String" style="text;strokeColor=none;fillColor=none;align=left;verticalAlign=top;spacingLeft=4;spacingRight=4;overflow=hidden;rotatable=0;points=[[0,0.5],[1,0.5]];portConstraint=eastwest;" vertex="1" parent="VAlqsD_80NPTklT60D_i-1">
          <mxGeometry y="182" width="210" height="26" as="geometry" />
        </mxCell>
        <mxCell id="VAlqsD_80NPTklT60D_i-9" value="  - phone: String" style="text;strokeColor=none;fillColor=none;align=left;verticalAlign=top;spacingLeft=4;spacingRight=4;overflow=hidden;rotatable=0;points=[[0,0.5],[1,0.5]];portConstraint=eastwest;" vertex="1" parent="VAlqsD_80NPTklT60D_i-1">
          <mxGeometry y="208" width="210" height="26" as="geometry" />
        </mxCell>
        <mxCell id="VAlqsD_80NPTklT60D_i-10" value="  - role: String" style="text;strokeColor=none;fillColor=none;align=left;verticalAlign=top;spacingLeft=4;spacingRight=4;overflow=hidden;rotatable=0;points=[[0,0.5],[1,0.5]];portConstraint=eastwest;" vertex="1" parent="VAlqsD_80NPTklT60D_i-1">
          <mxGeometry y="234" width="210" height="26" as="geometry" />
        </mxCell>
        <mxCell id="VAlqsD_80NPTklT60D_i-12" value="Driver " style="swimlane;fontStyle=1;childLayout=stackLayout;horizontal=1;startSize=26;horizontalStack=0;resizeParent=1;resizeParentMax=0;resizeLast=0;collapsible=1;marginBottom=0;fillColor=#fff2cc;strokeColor=#d6b656;" vertex="1" parent="1">
          <mxGeometry x="-770" y="320" width="160" height="156" as="geometry" />
        </mxCell>
        <mxCell id="VAlqsD_80NPTklT60D_i-13" value="  - userId: int" style="text;strokeColor=none;fillColor=none;align=left;verticalAlign=top;spacingLeft=4;spacingRight=4;overflow=hidden;rotatable=0;points=[[0,0.5],[1,0.5]];portConstraint=eastwest;" vertex="1" parent="VAlqsD_80NPTklT60D_i-12">
          <mxGeometry y="26" width="160" height="26" as="geometry" />
        </mxCell>
        <mxCell id="VAlqsD_80NPTklT60D_i-14" value="  - licenseNumber: String" style="text;strokeColor=none;fillColor=none;align=left;verticalAlign=top;spacingLeft=4;spacingRight=4;overflow=hidden;rotatable=0;points=[[0,0.5],[1,0.5]];portConstraint=eastwest;" vertex="1" parent="VAlqsD_80NPTklT60D_i-12">
          <mxGeometry y="52" width="160" height="26" as="geometry" />
        </mxCell>
        <mxCell id="VAlqsD_80NPTklT60D_i-15" value="  - age: int" style="text;strokeColor=none;fillColor=none;align=left;verticalAlign=top;spacingLeft=4;spacingRight=4;overflow=hidden;rotatable=0;points=[[0,0.5],[1,0.5]];portConstraint=eastwest;" vertex="1" parent="VAlqsD_80NPTklT60D_i-12">
          <mxGeometry y="78" width="160" height="26" as="geometry" />
        </mxCell>
        <mxCell id="VAlqsD_80NPTklT60D_i-16" value="  - rating: decimal" style="text;strokeColor=none;fillColor=none;align=left;verticalAlign=top;spacingLeft=4;spacingRight=4;overflow=hidden;rotatable=0;points=[[0,0.5],[1,0.5]];portConstraint=eastwest;" vertex="1" parent="VAlqsD_80NPTklT60D_i-12">
          <mxGeometry y="104" width="160" height="26" as="geometry" />
        </mxCell>
        <mxCell id="VAlqsD_80NPTklT60D_i-17" value="  - availability: String" style="text;strokeColor=none;fillColor=none;align=left;verticalAlign=top;spacingLeft=4;spacingRight=4;overflow=hidden;rotatable=0;points=[[0,0.5],[1,0.5]];portConstraint=eastwest;" vertex="1" parent="VAlqsD_80NPTklT60D_i-12">
          <mxGeometry y="130" width="160" height="26" as="geometry" />
        </mxCell>
        <mxCell id="VAlqsD_80NPTklT60D_i-19" value=" Customer" style="swimlane;fontStyle=1;childLayout=stackLayout;horizontal=1;startSize=26;horizontalStack=0;resizeParent=1;resizeParentMax=0;resizeLast=0;collapsible=1;marginBottom=0;fillColor=#fff2cc;strokeColor=#d6b656;" vertex="1" parent="1">
          <mxGeometry x="-240" y="320" width="170" height="78" as="geometry" />
        </mxCell>
        <mxCell id="VAlqsD_80NPTklT60D_i-20" value="  - userId: int" style="text;strokeColor=none;fillColor=none;align=left;verticalAlign=top;spacingLeft=4;spacingRight=4;overflow=hidden;rotatable=0;points=[[0,0.5],[1,0.5]];portConstraint=eastwest;" vertex="1" parent="VAlqsD_80NPTklT60D_i-19">
          <mxGeometry y="26" width="170" height="26" as="geometry" />
        </mxCell>
        <mxCell id="VAlqsD_80NPTklT60D_i-21" value="  - rewardPoints: int" style="text;strokeColor=none;fillColor=none;align=left;verticalAlign=top;spacingLeft=4;spacingRight=4;overflow=hidden;rotatable=0;points=[[0,0.5],[1,0.5]];portConstraint=eastwest;" vertex="1" parent="VAlqsD_80NPTklT60D_i-19">
          <mxGeometry y="52" width="170" height="26" as="geometry" />
        </mxCell>
        <mxCell id="VAlqsD_80NPTklT60D_i-23" value=" Car " style="swimlane;fontStyle=1;childLayout=stackLayout;horizontal=1;startSize=26;horizontalStack=0;resizeParent=1;resizeParentMax=0;resizeLast=0;collapsible=1;marginBottom=0;fillColor=#fff2cc;strokeColor=#d6b656;" vertex="1" parent="1">
          <mxGeometry x="-610" y="560" width="160" height="182" as="geometry" />
        </mxCell>
        <mxCell id="VAlqsD_80NPTklT60D_i-24" value="  - plateNumber: String" style="text;strokeColor=none;fillColor=none;align=left;verticalAlign=top;spacingLeft=4;spacingRight=4;overflow=hidden;rotatable=0;points=[[0,0.5],[1,0.5]];portConstraint=eastwest;" vertex="1" parent="VAlqsD_80NPTklT60D_i-23">
          <mxGeometry y="26" width="160" height="26" as="geometry" />
        </mxCell>
        <mxCell id="VAlqsD_80NPTklT60D_i-25" value="  - type: String" style="text;strokeColor=none;fillColor=none;align=left;verticalAlign=top;spacingLeft=4;spacingRight=4;overflow=hidden;rotatable=0;points=[[0,0.5],[1,0.5]];portConstraint=eastwest;" vertex="1" parent="VAlqsD_80NPTklT60D_i-23">
          <mxGeometry y="52" width="160" height="26" as="geometry" />
        </mxCell>
        <mxCell id="VAlqsD_80NPTklT60D_i-26" value="  - model: String" style="text;strokeColor=none;fillColor=none;align=left;verticalAlign=top;spacingLeft=4;spacingRight=4;overflow=hidden;rotatable=0;points=[[0,0.5],[1,0.5]];portConstraint=eastwest;" vertex="1" parent="VAlqsD_80NPTklT60D_i-23">
          <mxGeometry y="78" width="160" height="26" as="geometry" />
        </mxCell>
        <mxCell id="VAlqsD_80NPTklT60D_i-27" value="  - status: String" style="text;strokeColor=none;fillColor=none;align=left;verticalAlign=top;spacingLeft=4;spacingRight=4;overflow=hidden;rotatable=0;points=[[0,0.5],[1,0.5]];portConstraint=eastwest;" vertex="1" parent="VAlqsD_80NPTklT60D_i-23">
          <mxGeometry y="104" width="160" height="26" as="geometry" />
        </mxCell>
        <mxCell id="VAlqsD_80NPTklT60D_i-28" value="  - fuelLevel: String" style="text;strokeColor=none;fillColor=none;align=left;verticalAlign=top;spacingLeft=4;spacingRight=4;overflow=hidden;rotatable=0;points=[[0,0.5],[1,0.5]];portConstraint=eastwest;" vertex="1" parent="VAlqsD_80NPTklT60D_i-23">
          <mxGeometry y="130" width="160" height="26" as="geometry" />
        </mxCell>
        <mxCell id="VAlqsD_80NPTklT60D_i-29" value="  - driverId: int" style="text;strokeColor=none;fillColor=none;align=left;verticalAlign=top;spacingLeft=4;spacingRight=4;overflow=hidden;rotatable=0;points=[[0,0.5],[1,0.5]];portConstraint=eastwest;" vertex="1" parent="VAlqsD_80NPTklT60D_i-23">
          <mxGeometry y="156" width="160" height="26" as="geometry" />
        </mxCell>
        <mxCell id="VAlqsD_80NPTklT60D_i-31" value=" Ride " style="swimlane;fontStyle=1;childLayout=stackLayout;horizontal=1;startSize=26;horizontalStack=0;resizeParent=1;resizeParentMax=0;resizeLast=0;collapsible=1;marginBottom=0;fillColor=#fff2cc;strokeColor=#d6b656;" vertex="1" parent="1">
          <mxGeometry x="-810" y="560" width="160" height="234" as="geometry" />
        </mxCell>
        <mxCell id="VAlqsD_80NPTklT60D_i-32" value="  - rideId: int" style="text;strokeColor=none;fillColor=none;align=left;verticalAlign=top;spacingLeft=4;spacingRight=4;overflow=hidden;rotatable=0;points=[[0,0.5],[1,0.5]];portConstraint=eastwest;" vertex="1" parent="VAlqsD_80NPTklT60D_i-31">
          <mxGeometry y="26" width="160" height="26" as="geometry" />
        </mxCell>
        <mxCell id="VAlqsD_80NPTklT60D_i-33" value="  - startLocation: String" style="text;strokeColor=none;fillColor=none;align=left;verticalAlign=top;spacingLeft=4;spacingRight=4;overflow=hidden;rotatable=0;points=[[0,0.5],[1,0.5]];portConstraint=eastwest;" vertex="1" parent="VAlqsD_80NPTklT60D_i-31">
          <mxGeometry y="52" width="160" height="26" as="geometry" />
        </mxCell>
        <mxCell id="VAlqsD_80NPTklT60D_i-34" value="  - destination: String" style="text;strokeColor=none;fillColor=none;align=left;verticalAlign=top;spacingLeft=4;spacingRight=4;overflow=hidden;rotatable=0;points=[[0,0.5],[1,0.5]];portConstraint=eastwest;" vertex="1" parent="VAlqsD_80NPTklT60D_i-31">
          <mxGeometry y="78" width="160" height="26" as="geometry" />
        </mxCell>
        <mxCell id="VAlqsD_80NPTklT60D_i-35" value="  - startTime: datetime" style="text;strokeColor=none;fillColor=none;align=left;verticalAlign=top;spacingLeft=4;spacingRight=4;overflow=hidden;rotatable=0;points=[[0,0.5],[1,0.5]];portConstraint=eastwest;" vertex="1" parent="VAlqsD_80NPTklT60D_i-31">
          <mxGeometry y="104" width="160" height="26" as="geometry" />
        </mxCell>
        <mxCell id="VAlqsD_80NPTklT60D_i-36" value="  - endTime: datetime" style="text;strokeColor=none;fillColor=none;align=left;verticalAlign=top;spacingLeft=4;spacingRight=4;overflow=hidden;rotatable=0;points=[[0,0.5],[1,0.5]];portConstraint=eastwest;" vertex="1" parent="VAlqsD_80NPTklT60D_i-31">
          <mxGeometry y="130" width="160" height="26" as="geometry" />
        </mxCell>
        <mxCell id="VAlqsD_80NPTklT60D_i-37" value="  - cost: decimal" style="text;strokeColor=none;fillColor=none;align=left;verticalAlign=top;spacingLeft=4;spacingRight=4;overflow=hidden;rotatable=0;points=[[0,0.5],[1,0.5]];portConstraint=eastwest;" vertex="1" parent="VAlqsD_80NPTklT60D_i-31">
          <mxGeometry y="156" width="160" height="26" as="geometry" />
        </mxCell>
        <mxCell id="VAlqsD_80NPTklT60D_i-38" value="  - status: String" style="text;strokeColor=none;fillColor=none;align=left;verticalAlign=top;spacingLeft=4;spacingRight=4;overflow=hidden;rotatable=0;points=[[0,0.5],[1,0.5]];portConstraint=eastwest;" vertex="1" parent="VAlqsD_80NPTklT60D_i-31">
          <mxGeometry y="182" width="160" height="26" as="geometry" />
        </mxCell>
        <mxCell id="VAlqsD_80NPTklT60D_i-39" value="  - driverId: int" style="text;strokeColor=none;fillColor=none;align=left;verticalAlign=top;spacingLeft=4;spacingRight=4;overflow=hidden;rotatable=0;points=[[0,0.5],[1,0.5]];portConstraint=eastwest;" vertex="1" parent="VAlqsD_80NPTklT60D_i-31">
          <mxGeometry y="208" width="160" height="26" as="geometry" />
        </mxCell>
        <mxCell id="VAlqsD_80NPTklT60D_i-41" value="RideCustomer " style="swimlane;fontStyle=1;childLayout=stackLayout;horizontal=1;startSize=26;horizontalStack=0;resizeParent=1;resizeParentMax=0;resizeLast=0;collapsible=1;marginBottom=0;fillColor=#fff2cc;strokeColor=#d6b656;" vertex="1" parent="1">
          <mxGeometry x="-360" y="850" width="170" height="78" as="geometry" />
        </mxCell>
        <mxCell id="VAlqsD_80NPTklT60D_i-42" value="  - rideId: int" style="text;strokeColor=none;fillColor=none;align=left;verticalAlign=top;spacingLeft=4;spacingRight=4;overflow=hidden;rotatable=0;points=[[0,0.5],[1,0.5]];portConstraint=eastwest;" vertex="1" parent="VAlqsD_80NPTklT60D_i-41">
          <mxGeometry y="26" width="170" height="26" as="geometry" />
        </mxCell>
        <mxCell id="VAlqsD_80NPTklT60D_i-43" value="  - customerId: int" style="text;strokeColor=none;fillColor=none;align=left;verticalAlign=top;spacingLeft=4;spacingRight=4;overflow=hidden;rotatable=0;points=[[0,0.5],[1,0.5]];portConstraint=eastwest;" vertex="1" parent="VAlqsD_80NPTklT60D_i-41">
          <mxGeometry y="52" width="170" height="26" as="geometry" />
        </mxCell>
        <mxCell id="VAlqsD_80NPTklT60D_i-45" value=" Payment " style="swimlane;fontStyle=1;childLayout=stackLayout;horizontal=1;startSize=26;horizontalStack=0;resizeParent=1;resizeParentMax=0;resizeLast=0;collapsible=1;marginBottom=0;fillColor=#fff2cc;strokeColor=#d6b656;" vertex="1" parent="1">
          <mxGeometry x="-400" y="560" width="160" height="182" as="geometry" />
        </mxCell>
        <mxCell id="VAlqsD_80NPTklT60D_i-46" value="  - paymentId: int" style="text;strokeColor=none;fillColor=none;align=left;verticalAlign=top;spacingLeft=4;spacingRight=4;overflow=hidden;rotatable=0;points=[[0,0.5],[1,0.5]];portConstraint=eastwest;" vertex="1" parent="VAlqsD_80NPTklT60D_i-45">
          <mxGeometry y="26" width="160" height="26" as="geometry" />
        </mxCell>
        <mxCell id="VAlqsD_80NPTklT60D_i-47" value="  - amount: decimal" style="text;strokeColor=none;fillColor=none;align=left;verticalAlign=top;spacingLeft=4;spacingRight=4;overflow=hidden;rotatable=0;points=[[0,0.5],[1,0.5]];portConstraint=eastwest;" vertex="1" parent="VAlqsD_80NPTklT60D_i-45">
          <mxGeometry y="52" width="160" height="26" as="geometry" />
        </mxCell>
        <mxCell id="VAlqsD_80NPTklT60D_i-48" value="  - paymentMethod: String" style="text;strokeColor=none;fillColor=none;align=left;verticalAlign=top;spacingLeft=4;spacingRight=4;overflow=hidden;rotatable=0;points=[[0,0.5],[1,0.5]];portConstraint=eastwest;" vertex="1" parent="VAlqsD_80NPTklT60D_i-45">
          <mxGeometry y="78" width="160" height="26" as="geometry" />
        </mxCell>
        <mxCell id="VAlqsD_80NPTklT60D_i-49" value="  - paymentDate: datetime" style="text;strokeColor=none;fillColor=none;align=left;verticalAlign=top;spacingLeft=4;spacingRight=4;overflow=hidden;rotatable=0;points=[[0,0.5],[1,0.5]];portConstraint=eastwest;" vertex="1" parent="VAlqsD_80NPTklT60D_i-45">
          <mxGeometry y="104" width="160" height="26" as="geometry" />
        </mxCell>
        <mxCell id="VAlqsD_80NPTklT60D_i-50" value="  - rideId: int" style="text;strokeColor=none;fillColor=none;align=left;verticalAlign=top;spacingLeft=4;spacingRight=4;overflow=hidden;rotatable=0;points=[[0,0.5],[1,0.5]];portConstraint=eastwest;" vertex="1" parent="VAlqsD_80NPTklT60D_i-45">
          <mxGeometry y="130" width="160" height="26" as="geometry" />
        </mxCell>
        <mxCell id="VAlqsD_80NPTklT60D_i-51" value="  - customerId: int" style="text;strokeColor=none;fillColor=none;align=left;verticalAlign=top;spacingLeft=4;spacingRight=4;overflow=hidden;rotatable=0;points=[[0,0.5],[1,0.5]];portConstraint=eastwest;" vertex="1" parent="VAlqsD_80NPTklT60D_i-45">
          <mxGeometry y="156" width="160" height="26" as="geometry" />
        </mxCell>
        <mxCell id="VAlqsD_80NPTklT60D_i-53" value=" Complaint " style="swimlane;fontStyle=1;childLayout=stackLayout;horizontal=1;startSize=26;horizontalStack=0;resizeParent=1;resizeParentMax=0;resizeLast=0;collapsible=1;marginBottom=0;fillColor=#fff2cc;strokeColor=#d6b656;" vertex="1" parent="1">
          <mxGeometry x="-190" y="560" width="160" height="208" as="geometry" />
        </mxCell>
        <mxCell id="VAlqsD_80NPTklT60D_i-54" value="  - complaintId: int" style="text;strokeColor=none;fillColor=none;align=left;verticalAlign=top;spacingLeft=4;spacingRight=4;overflow=hidden;rotatable=0;points=[[0,0.5],[1,0.5]];portConstraint=eastwest;" vertex="1" parent="VAlqsD_80NPTklT60D_i-53">
          <mxGeometry y="26" width="160" height="26" as="geometry" />
        </mxCell>
        <mxCell id="VAlqsD_80NPTklT60D_i-55" value="  - complaintType: String" style="text;strokeColor=none;fillColor=none;align=left;verticalAlign=top;spacingLeft=4;spacingRight=4;overflow=hidden;rotatable=0;points=[[0,0.5],[1,0.5]];portConstraint=eastwest;" vertex="1" parent="VAlqsD_80NPTklT60D_i-53">
          <mxGeometry y="52" width="160" height="26" as="geometry" />
        </mxCell>
        <mxCell id="VAlqsD_80NPTklT60D_i-56" value="  - description: String" style="text;strokeColor=none;fillColor=none;align=left;verticalAlign=top;spacingLeft=4;spacingRight=4;overflow=hidden;rotatable=0;points=[[0,0.5],[1,0.5]];portConstraint=eastwest;" vertex="1" parent="VAlqsD_80NPTklT60D_i-53">
          <mxGeometry y="78" width="160" height="26" as="geometry" />
        </mxCell>
        <mxCell id="VAlqsD_80NPTklT60D_i-57" value="  - resolutionStatus: String" style="text;strokeColor=none;fillColor=none;align=left;verticalAlign=top;spacingLeft=4;spacingRight=4;overflow=hidden;rotatable=0;points=[[0,0.5],[1,0.5]];portConstraint=eastwest;" vertex="1" parent="VAlqsD_80NPTklT60D_i-53">
          <mxGeometry y="104" width="160" height="26" as="geometry" />
        </mxCell>
        <mxCell id="VAlqsD_80NPTklT60D_i-58" value="  - feedbackRating: int" style="text;strokeColor=none;fillColor=none;align=left;verticalAlign=top;spacingLeft=4;spacingRight=4;overflow=hidden;rotatable=0;points=[[0,0.5],[1,0.5]];portConstraint=eastwest;" vertex="1" parent="VAlqsD_80NPTklT60D_i-53">
          <mxGeometry y="130" width="160" height="26" as="geometry" />
        </mxCell>
        <mxCell id="VAlqsD_80NPTklT60D_i-59" value="  - customerId: int" style="text;strokeColor=none;fillColor=none;align=left;verticalAlign=top;spacingLeft=4;spacingRight=4;overflow=hidden;rotatable=0;points=[[0,0.5],[1,0.5]];portConstraint=eastwest;" vertex="1" parent="VAlqsD_80NPTklT60D_i-53">
          <mxGeometry y="156" width="160" height="26" as="geometry" />
        </mxCell>
        <mxCell id="VAlqsD_80NPTklT60D_i-60" value="  - driverId: int" style="text;strokeColor=none;fillColor=none;align=left;verticalAlign=top;spacingLeft=4;spacingRight=4;overflow=hidden;rotatable=0;points=[[0,0.5],[1,0.5]];portConstraint=eastwest;" vertex="1" parent="VAlqsD_80NPTklT60D_i-53">
          <mxGeometry y="182" width="160" height="26" as="geometry" />
        </mxCell>
        <mxCell id="VAlqsD_80NPTklT60D_i-72" value="" style="endArrow=none;html=1;rounded=0;entryX=0;entryY=0;entryDx=0;entryDy=0;exitX=1;exitY=0;exitDx=0;exitDy=0;" edge="1" parent="1" source="VAlqsD_80NPTklT60D_i-12" target="VAlqsD_80NPTklT60D_i-19">
          <mxGeometry width="50" height="50" relative="1" as="geometry">
            <mxPoint x="-640" y="310" as="sourcePoint" />
            <mxPoint x="-190" y="310" as="targetPoint" />
          </mxGeometry>
        </mxCell>
        <mxCell id="VAlqsD_80NPTklT60D_i-81" value="" style="triangle;whiteSpace=wrap;html=1;rotation=-90;" vertex="1" parent="1">
          <mxGeometry x="-390" y="290" width="20" height="40" as="geometry" />
        </mxCell>
        <mxCell id="VAlqsD_80NPTklT60D_i-82" value="" style="endArrow=none;html=1;rounded=0;entryX=1;entryY=0.5;entryDx=0;entryDy=0;exitX=0.48;exitY=1.039;exitDx=0;exitDy=0;exitPerimeter=0;" edge="1" parent="1" source="VAlqsD_80NPTklT60D_i-10" target="VAlqsD_80NPTklT60D_i-81">
          <mxGeometry width="50" height="50" relative="1" as="geometry">
            <mxPoint x="-380" y="280" as="sourcePoint" />
            <mxPoint x="-430" y="340" as="targetPoint" />
          </mxGeometry>
        </mxCell>
        <mxCell id="VAlqsD_80NPTklT60D_i-83" value="1" style="text;html=1;align=center;verticalAlign=middle;whiteSpace=wrap;rounded=0;" vertex="1" parent="1">
          <mxGeometry x="-610" y="320" width="30" height="30" as="geometry" />
        </mxCell>
        <mxCell id="VAlqsD_80NPTklT60D_i-84" value="&lt;span style=&quot;color: rgb(0, 0, 0); font-family: Helvetica; font-size: 12px; font-style: normal; font-variant-ligatures: normal; font-variant-caps: normal; font-weight: 400; letter-spacing: normal; orphans: 2; text-align: center; text-indent: 0px; text-transform: none; widows: 2; word-spacing: 0px; -webkit-text-stroke-width: 0px; white-space: normal; background-color: rgb(251, 251, 251); text-decoration-thickness: initial; text-decoration-style: initial; text-decoration-color: initial; display: inline !important; float: none;&quot;&gt;1&lt;/span&gt;" style="text;whiteSpace=wrap;html=1;" vertex="1" parent="1">
          <mxGeometry x="-260" y="330" width="40" height="50" as="geometry" />
        </mxCell>
        <mxCell id="VAlqsD_80NPTklT60D_i-85" value="&lt;span style=&quot;color: rgb(0, 0, 0); font-family: Helvetica; font-size: 12px; font-style: normal; font-variant-ligatures: normal; font-variant-caps: normal; font-weight: 400; letter-spacing: normal; orphans: 2; text-align: center; text-indent: 0px; text-transform: none; widows: 2; word-spacing: 0px; -webkit-text-stroke-width: 0px; white-space: normal; background-color: rgb(251, 251, 251); text-decoration-thickness: initial; text-decoration-style: initial; text-decoration-color: initial; display: inline !important; float: none;&quot;&gt;1&lt;/span&gt;" style="text;whiteSpace=wrap;html=1;" vertex="1" parent="1">
          <mxGeometry x="-410" y="270" width="20" height="30" as="geometry" />
        </mxCell>
        <mxCell id="VAlqsD_80NPTklT60D_i-86" value="" style="endArrow=none;html=1;rounded=0;entryX=0.563;entryY=1.192;entryDx=0;entryDy=0;entryPerimeter=0;exitX=0.808;exitY=-0.012;exitDx=0;exitDy=0;exitPerimeter=0;" edge="1" parent="1" source="VAlqsD_80NPTklT60D_i-31" target="VAlqsD_80NPTklT60D_i-17">
          <mxGeometry width="50" height="50" relative="1" as="geometry">
            <mxPoint x="-694" y="550" as="sourcePoint" />
            <mxPoint x="-640" y="510" as="targetPoint" />
          </mxGeometry>
        </mxCell>
        <mxCell id="VAlqsD_80NPTklT60D_i-92" value="" style="endArrow=none;html=1;rounded=0;entryX=0.5;entryY=0;entryDx=0;entryDy=0;" edge="1" parent="1" target="VAlqsD_80NPTklT60D_i-23">
          <mxGeometry width="50" height="50" relative="1" as="geometry">
            <mxPoint x="-530" y="470" as="sourcePoint" />
            <mxPoint x="-560" y="550" as="targetPoint" />
          </mxGeometry>
        </mxCell>
        <mxCell id="VAlqsD_80NPTklT60D_i-93" value="" style="endArrow=none;html=1;rounded=0;" edge="1" parent="1">
          <mxGeometry width="50" height="50" relative="1" as="geometry">
            <mxPoint x="-610" y="463" as="sourcePoint" />
            <mxPoint x="-530" y="470" as="targetPoint" />
          </mxGeometry>
        </mxCell>
        <mxCell id="VAlqsD_80NPTklT60D_i-97" value="1" style="text;html=1;align=center;verticalAlign=middle;resizable=0;points=[];autosize=1;strokeColor=none;fillColor=none;" vertex="1" parent="1">
          <mxGeometry x="-375" y="268" width="30" height="30" as="geometry" />
        </mxCell>
        <mxCell id="VAlqsD_80NPTklT60D_i-98" value="1" style="text;html=1;align=center;verticalAlign=middle;whiteSpace=wrap;rounded=0;" vertex="1" parent="1">
          <mxGeometry x="-625" y="430" width="60" height="30" as="geometry" />
        </mxCell>
        <mxCell id="VAlqsD_80NPTklT60D_i-99" value="*" style="text;html=1;align=center;verticalAlign=middle;resizable=0;points=[];autosize=1;strokeColor=none;fillColor=none;" vertex="1" parent="1">
          <mxGeometry x="-530" y="530" width="30" height="30" as="geometry" />
        </mxCell>
        <mxCell id="VAlqsD_80NPTklT60D_i-100" value="1" style="text;html=1;align=center;verticalAlign=middle;resizable=0;points=[];autosize=1;strokeColor=none;fillColor=none;" vertex="1" parent="1">
          <mxGeometry x="-675" y="478" width="30" height="30" as="geometry" />
        </mxCell>
        <mxCell id="VAlqsD_80NPTklT60D_i-101" value="*" style="text;html=1;align=center;verticalAlign=middle;resizable=0;points=[];autosize=1;strokeColor=none;fillColor=none;" vertex="1" parent="1">
          <mxGeometry x="-675" y="528" width="30" height="30" as="geometry" />
        </mxCell>
        <mxCell id="VAlqsD_80NPTklT60D_i-102" value="" style="endArrow=none;html=1;rounded=0;exitX=0.755;exitY=1.169;exitDx=0;exitDy=0;exitPerimeter=0;entryX=0;entryY=0.5;entryDx=0;entryDy=0;" edge="1" parent="1" source="VAlqsD_80NPTklT60D_i-39" target="VAlqsD_80NPTklT60D_i-42">
          <mxGeometry width="50" height="50" relative="1" as="geometry">
            <mxPoint x="-450" y="420" as="sourcePoint" />
            <mxPoint x="-689" y="930" as="targetPoint" />
            <Array as="points">
              <mxPoint x="-689" y="890" />
            </Array>
          </mxGeometry>
        </mxCell>
        <mxCell id="VAlqsD_80NPTklT60D_i-103" value="1" style="text;html=1;align=center;verticalAlign=middle;resizable=0;points=[];autosize=1;strokeColor=none;fillColor=none;" vertex="1" parent="1">
          <mxGeometry x="-725" y="798" width="30" height="30" as="geometry" />
        </mxCell>
        <mxCell id="VAlqsD_80NPTklT60D_i-104" value="*" style="text;html=1;align=center;verticalAlign=middle;resizable=0;points=[];autosize=1;strokeColor=none;fillColor=none;" vertex="1" parent="1">
          <mxGeometry x="-385" y="858" width="30" height="30" as="geometry" />
        </mxCell>
        <mxCell id="VAlqsD_80NPTklT60D_i-105" value="" style="endArrow=none;html=1;rounded=0;entryX=1;entryY=0.5;entryDx=0;entryDy=0;exitX=1;exitY=0.5;exitDx=0;exitDy=0;" edge="1" parent="1" source="VAlqsD_80NPTklT60D_i-42" target="VAlqsD_80NPTklT60D_i-20">
          <mxGeometry width="50" height="50" relative="1" as="geometry">
            <mxPoint x="-180" y="900" as="sourcePoint" />
            <mxPoint x="-400" y="370" as="targetPoint" />
            <Array as="points">
              <mxPoint x="-110" y="890" />
              <mxPoint x="-20" y="890" />
              <mxPoint x="-20" y="360" />
            </Array>
          </mxGeometry>
        </mxCell>
        <mxCell id="VAlqsD_80NPTklT60D_i-106" value="*" style="text;html=1;align=center;verticalAlign=middle;resizable=0;points=[];autosize=1;strokeColor=none;fillColor=none;" vertex="1" parent="1">
          <mxGeometry x="-185" y="858" width="30" height="30" as="geometry" />
        </mxCell>
        <mxCell id="VAlqsD_80NPTklT60D_i-107" value="1" style="text;html=1;align=center;verticalAlign=middle;resizable=0;points=[];autosize=1;strokeColor=none;fillColor=none;" vertex="1" parent="1">
          <mxGeometry x="-75" y="328" width="30" height="30" as="geometry" />
        </mxCell>
        <mxCell id="VAlqsD_80NPTklT60D_i-108" value="" style="endArrow=none;html=1;rounded=0;exitX=1;exitY=0.5;exitDx=0;exitDy=0;entryX=0.925;entryY=0.201;entryDx=0;entryDy=0;entryPerimeter=0;" edge="1" parent="1" source="VAlqsD_80NPTklT60D_i-39" target="VAlqsD_80NPTklT60D_i-110">
          <mxGeometry width="50" height="50" relative="1" as="geometry">
            <mxPoint x="-640" y="780" as="sourcePoint" />
            <mxPoint x="-333.04000000000013" y="750.002" as="targetPoint" />
            <Array as="points">
              <mxPoint x="-327" y="780" />
            </Array>
          </mxGeometry>
        </mxCell>
        <mxCell id="VAlqsD_80NPTklT60D_i-109" value="1" style="text;html=1;align=center;verticalAlign=middle;resizable=0;points=[];autosize=1;strokeColor=none;fillColor=none;" vertex="1" parent="1">
          <mxGeometry x="-645" y="748" width="30" height="30" as="geometry" />
        </mxCell>
        <mxCell id="VAlqsD_80NPTklT60D_i-110" value="1" style="text;html=1;align=center;verticalAlign=middle;resizable=0;points=[];autosize=1;strokeColor=none;fillColor=none;" vertex="1" parent="1">
          <mxGeometry x="-355" y="738" width="30" height="30" as="geometry" />
        </mxCell>
        <mxCell id="VAlqsD_80NPTklT60D_i-111" value="" style="endArrow=none;html=1;rounded=0;entryX=-0.003;entryY=1.081;entryDx=0;entryDy=0;entryPerimeter=0;" edge="1" parent="1" target="VAlqsD_80NPTklT60D_i-21">
          <mxGeometry width="50" height="50" relative="1" as="geometry">
            <mxPoint x="-240" y="557" as="sourcePoint" />
            <mxPoint x="-260" y="520" as="targetPoint" />
          </mxGeometry>
        </mxCell>
        <mxCell id="VAlqsD_80NPTklT60D_i-112" value="1" style="text;html=1;align=center;verticalAlign=middle;resizable=0;points=[];autosize=1;strokeColor=none;fillColor=none;" vertex="1" parent="1">
          <mxGeometry x="-275" y="378" width="30" height="30" as="geometry" />
        </mxCell>
        <mxCell id="VAlqsD_80NPTklT60D_i-113" value="*" style="text;html=1;align=center;verticalAlign=middle;resizable=0;points=[];autosize=1;strokeColor=none;fillColor=none;" vertex="1" parent="1">
          <mxGeometry x="-265" y="528" width="30" height="30" as="geometry" />
        </mxCell>
        <mxCell id="VAlqsD_80NPTklT60D_i-114" value="" style="endArrow=none;html=1;rounded=0;exitX=0.94;exitY=-0.004;exitDx=0;exitDy=0;exitPerimeter=0;entryX=1;entryY=0.5;entryDx=0;entryDy=0;" edge="1" parent="1" source="VAlqsD_80NPTklT60D_i-53" target="VAlqsD_80NPTklT60D_i-7">
          <mxGeometry width="50" height="50" relative="1" as="geometry">
            <mxPoint x="-220" y="470" as="sourcePoint" />
            <mxPoint x="-40" y="190" as="targetPoint" />
            <Array as="points">
              <mxPoint x="-40" y="179" />
            </Array>
          </mxGeometry>
        </mxCell>
        <mxCell id="VAlqsD_80NPTklT60D_i-115" value="*" style="text;html=1;align=center;verticalAlign=middle;resizable=0;points=[];autosize=1;strokeColor=none;fillColor=none;" vertex="1" parent="1">
          <mxGeometry x="-65" y="528" width="30" height="30" as="geometry" />
        </mxCell>
        <mxCell id="VAlqsD_80NPTklT60D_i-116" value="1" style="text;html=1;align=center;verticalAlign=middle;resizable=0;points=[];autosize=1;strokeColor=none;fillColor=none;" vertex="1" parent="1">
          <mxGeometry x="-275" y="158" width="30" height="30" as="geometry" />
        </mxCell>
      </root>
    </mxGraphModel>
  </diagram>
</mxfile>
